<svg width="804" height="496" viewBox="0 0 804 496" fill="none" xmlns="http://www.w3.org/2000/svg">
<path d="M803.577 54.7405L803.577 77.906L803.577 101.072L803.577 124.228L803.577 147.394L803.577 170.559L803.577 193.707L803.577 216.864L803.577 240.029L803.577 263.195L803.577 286.36L803.577 309.526L803.577 332.691L803.577 355.857L803.577 379.013L803.577 402.179L803.577 425.344L803.577 448.51V482.931L778.014 475.849L752.918 495.027L727.798 475.849L702.701 495.027L677.605 475.849L652.508 495.027L627.412 475.849L602.315 495.027L577.219 475.849L552.123 495.027L527.026 475.849L501.93 495.027L476.834 475.849L451.729 495.027L426.633 475.849L401.536 495.027L376.424 475.849L351.327 495.027L326.231 475.849L301.135 495.027L276.038 475.849L250.942 495.027L225.837 475.849L200.741 495.027L175.644 475.849L150.564 495.027L125.468 475.849L100.371 495.027L75.2748 475.849L50.1784 495.027L25.082 475.849L0.00165952 486.264V453.258L0.00038181 425.345L0.00165952 406.936L0.00038181 379.014L0.00165952 360.622L0.00038181 332.709L0.00165952 314.3L0.00038181 286.378L0.00165952 267.969L0.00038181 240.047L0.00165952 221.638L0.00038181 193.716L0.00165952 175.316V147.394V128.985V105.82V82.6541V54.7405V36.323L0 1.00007L25.4756 10.1779L50.556 -9L75.6524 10.1779L100.749 -9L125.853 10.1779L150.95 -9L176.046 10.1779L201.126 -9L226.239 10.1779L251.319 -9L276.432 10.1779L301.512 -9L326.609 10.1779L351.705 -9L376.801 10.1779L401.898 -9L427.018 10.1779L452.115 -9L477.211 10.1779L502.307 -9L527.404 10.1779L552.5 -9L577.597 10.1779L602.693 -9L627.789 10.1779L652.886 -9L677.982 10.1779L703.079 -9L728.183 10.1779L753.296 -9L778.392 10.1779L803.577 -0.998175L803.577 31.575L803.577 54.7405Z" fill="black"/>
</svg>
